<svg width="28" height="28" viewBox="0 0 28 28" fill="none" xmlns="http://www.w3.org/2000/svg">
<g clip-path="url(#clip0_5_21)">
<path d="M23.52 3.92H18.48V0.559998H9.52V3.92H4.48V10.08H0.559998V17.92H4.48V24.08H9.52V27.44H18.48V24.08H23.52V17.92H27.44V10.08H23.52V3.92ZM10.64 1.68H17.36V7.28H10.64V1.68ZM1.68 11.2H8.4V16.8H1.68V11.2ZM17.36 26.32H10.64V20.72H17.36V26.32ZM22.4 22.96H18.48V19.6H9.52V22.96H5.6V17.92H9.52V10.08H5.6V5.04H9.52V8.4H18.48V5.04H22.4V10.08H18.48V17.92H22.4V22.96ZM26.32 16.8H19.6V11.2H26.32V16.8Z" fill="white"/>
</g>
<defs>
<clipPath id="clip0_5_21">
<rect width="28" height="28" fill="white"/>
</clipPath>
</defs>
</svg>
